<svg width="18" height="17" viewBox="0 0 18 17" fill="none" xmlns="http://www.w3.org/2000/svg">
<path d="M9 1.4375C7.54131 1.4375 6.14236 2.01696 5.11091 3.04841C4.07946 4.07986 3.5 5.47881 3.5 6.9375C3.5 10.65 8.34688 14.8438 8.55313 15.0225C8.67765 15.129 8.83613 15.1875 9 15.1875C9.16387 15.1875 9.32235 15.129 9.44687 15.0225C9.6875 14.8438 14.5 10.65 14.5 6.9375C14.5 5.47881 13.9205 4.07986 12.8891 3.04841C11.8576 2.01696 10.4587 1.4375 9 1.4375ZM9 13.5719C7.53562 12.1969 4.875 9.23375 4.875 6.9375C4.875 5.84348 5.3096 4.79427 6.08318 4.02068C6.85677 3.2471 7.90598 2.8125 9 2.8125C10.094 2.8125 11.1432 3.2471 11.9168 4.02068C12.6904 4.79427 13.125 5.84348 13.125 6.9375C13.125 9.23375 10.4644 12.2037 9 13.5719ZM9 4.1875C8.4561 4.1875 7.92442 4.34878 7.47218 4.65096C7.01995 4.95313 6.66747 5.38262 6.45933 5.88512C6.25119 6.38762 6.19673 6.94055 6.30284 7.474C6.40895 8.00745 6.67086 8.49745 7.05546 8.88204C7.44005 9.26664 7.93005 9.52855 8.4635 9.63466C8.99695 9.74077 9.54988 9.68631 10.0524 9.47817C10.5549 9.27003 10.9844 8.91755 11.2865 8.46532C11.5887 8.01308 11.75 7.4814 11.75 6.9375C11.75 6.20815 11.4603 5.50868 10.9445 4.99296C10.4288 4.47723 9.72935 4.1875 9 4.1875ZM9 8.3125C8.72805 8.3125 8.46221 8.23186 8.23609 8.08077C8.00997 7.92968 7.83374 7.71494 7.72967 7.46369C7.6256 7.21244 7.59837 6.93597 7.65142 6.66925C7.70447 6.40253 7.83543 6.15753 8.02773 5.96523C8.22003 5.77293 8.46503 5.64197 8.73175 5.58892C8.99847 5.53587 9.27494 5.5631 9.52619 5.66717C9.77744 5.77124 9.99218 5.94747 10.1433 6.17359C10.2944 6.39971 10.375 6.66555 10.375 6.9375C10.375 7.30217 10.2301 7.65191 9.97227 7.90977C9.71441 8.16763 9.36467 8.3125 9 8.3125Z" fill="white"/>
</svg>
